<?xml version="1.0" encoding="UTF-8" standalone="no"?>
<!-- Created with Inkscape (http://www.inkscape.org/) -->

<svg
   width="59.266674mm"
   height="55.38546mm"
   viewBox="0 0 59.266674 55.38546"
   version="1.1"
   id="svg1"
   xml:space="preserve"
   xmlns:inkscape="http://www.inkscape.org/namespaces/inkscape"
   xmlns:sodipodi="http://sodipodi.sourceforge.net/DTD/sodipodi-0.dtd"
   xmlns="http://www.w3.org/2000/svg"
   xmlns:svg="http://www.w3.org/2000/svg"><sodipodi:namedview
     id="namedview1"
     pagecolor="#ffffff"
     bordercolor="#000000"
     borderopacity="0.25"
     inkscape:showpageshadow="2"
     inkscape:pageopacity="0.0"
     inkscape:pagecheckerboard="0"
     inkscape:deskcolor="#d1d1d1"
     inkscape:document-units="mm"
     inkscape:zoom="0.7198092"
     inkscape:cx="396.63288"
     inkscape:cy="338.97872"
     inkscape:window-width="1920"
     inkscape:window-height="1011"
     inkscape:window-x="0"
     inkscape:window-y="0"
     inkscape:window-maximized="1"
     inkscape:current-layer="layer1"
     showgrid="true"><inkscape:grid
       id="grid1"
       units="mm"
       originx="-22.339979"
       originy="-12.309358"
       spacingx="0.99999998"
       spacingy="1"
       empcolor="#0099e5"
       empopacity="0.30196078"
       color="#0099e5"
       opacity="0.14901961"
       empspacing="5"
       dotted="false"
       gridanglex="30"
       gridanglez="30"
       visible="true" /></sodipodi:namedview><defs
     id="defs1" /><g
     inkscape:label="Layer 1"
     inkscape:groupmode="layer"
     id="layer1"
     transform="translate(-22.33998,-12.309358)"><path
       style="fill:#ffffff"
       d="m 29.842771,67.411065 c -1.37099,-0.553262 -1.41737,-0.853993 -1.41737,-9.189224 v -7.746337 h 6.587 6.587 l 0.81189,1.265224 c 2.32909,3.629574 3.92487,8.66299 4.19146,13.220714 l 0.15863,2.711979 -8.17581,-0.01677 c -4.49669,-0.0092 -8.43095,-0.119737 -8.7428,-0.245585 z m 27.5005,-2.438924 c 0.2668,-4.561852 1.65513,-9.011598 4.03286,-12.925777 l 0.95425,-1.57086 h 6.59543 6.59542 v 7.790454 7.790455 l -0.63825,0.742358 -0.63826,0.742358 -8.53034,0.07685 -8.53034,0.07684 z M 28.425401,34.732796 V 21.900504 h 12.56433 12.56433 l -0.15306,2.050521 c -0.7533,10.091359 -4.38977,18.522825 -9.72672,22.552262 l -1.40634,1.061801 h -6.92127 -6.92127 z m 32.94063,12.520629 c -2.17899,-1.217094 -5.12584,-4.666667 -6.81148,-7.973518 l -0.91901,-1.80289 0.74206,-2.16586 c 1.04217,-3.041775 1.8432,-7.229392 2.02119,-10.566382 l 0.15171,-2.844271 h 9.48537 9.48536 v 12.832292 12.832292 l -6.81302,-0.008 c -4.51154,-0.0053 -6.99177,-0.107891 -7.34218,-0.303617 z M 22.803001,21.879311 c -0.41106,-0.239418 -0.46302,-0.754529 -0.46302,-4.589765 0,-4.701938 0.0839,-4.980188 1.50153,-4.980188 0.95883,0 1.40889,0.713441 1.40889,2.233383 v 1.272347 h 26.72291 26.72292 v -1.272347 c 0,-1.519942 0.45006,-2.233383 1.40889,-2.233383 1.4178,0 1.50153,0.277919 1.50153,4.984026 0,4.004142 -0.0379,4.344175 -0.51177,4.597811 -1.39368,0.745876 -2.39865,-0.06263 -2.39865,-1.929753 v -1.235938 h -26.72292 -26.72291 v 1.28191 c 0,1.832581 -1.08721,2.664135 -2.4474,1.871897 z"
       id="path1"
       inkscape:export-filename="./path1.svg"
       inkscape:export-xdpi="96"
       inkscape:export-ydpi="96" /></g></svg>
