<?xml version="1.0" encoding="UTF-8" standalone="no"?>
<!-- Created with Inkscape (http://www.inkscape.org/) -->

<svg
   width="54.239574mm"
   height="62.430054mm"
   viewBox="0 0 54.239574 62.430054"
   version="1.1"
   id="svg1"
   xml:space="preserve"
   xmlns:inkscape="http://www.inkscape.org/namespaces/inkscape"
   xmlns:sodipodi="http://sodipodi.sourceforge.net/DTD/sodipodi-0.dtd"
   xmlns="http://www.w3.org/2000/svg"
   xmlns:svg="http://www.w3.org/2000/svg"><sodipodi:namedview
     id="namedview1"
     pagecolor="#ffffff"
     bordercolor="#000000"
     borderopacity="0.25"
     inkscape:showpageshadow="2"
     inkscape:pageopacity="0.0"
     inkscape:pagecheckerboard="0"
     inkscape:deskcolor="#d1d1d1"
     inkscape:document-units="mm"
     inkscape:zoom="0.7198092"
     inkscape:cx="396.63288"
     inkscape:cy="338.97872"
     inkscape:window-width="1920"
     inkscape:window-height="1011"
     inkscape:window-x="0"
     inkscape:window-y="0"
     inkscape:window-maximized="1"
     inkscape:current-layer="layer1"
     showgrid="true"><inkscape:grid
       id="grid1"
       units="mm"
       originx="-21.25172"
       originy="-16.065318"
       spacingx="0.99999998"
       spacingy="1"
       empcolor="#0099e5"
       empopacity="0.30196078"
       color="#0099e5"
       opacity="0.14901961"
       empspacing="5"
       dotted="false"
       gridanglex="30"
       gridanglez="30"
       visible="true" /></sodipodi:namedview><defs
     id="defs1" /><g
     inkscape:label="Layer 1"
     inkscape:groupmode="layer"
     id="layer1"
     transform="translate(-21.251721,-16.065319)"><path
       style="fill:#ffffff"
       d="m 23.223381,77.899149 c -0.4866,-0.32791 -1.12928,-1.01252 -1.42819,-1.52135 -0.53878,-0.91716 -0.54347,-1.16153 -0.54347,-28.309518 V 20.683906 l 0.56871,-1.061801 c 0.75699,-1.413324 1.8455,-2.47956 3.13545,-3.071297 1.00005,-0.458749 2.28972,-0.485489 23.41563,-0.485489 21.1259,0 22.41558,0.02674 23.41562,0.485489 1.28995,0.591737 2.37846,1.657973 3.13546,3.071297 l 0.56871,1.061801 v 27.384375 c 0,27.147988 -0.005,27.392358 -0.54347,28.309518 -0.29891,0.50883 -0.9416,1.19344 -1.42819,1.52135 l -0.88472,0.59622 h -24.26341 -24.26341 z m 48.10201,-29.880777 0.0674,-26.37595 -0.63983,-0.743841 -0.63982,-0.743841 h -21.74163 -21.74165 l -0.63855,0.742358 -0.63855,0.742358 v 26.445041 26.445042 l 22.9526,-0.0676 22.95261,-0.0676 z m -26.26117,19.779293 c -3.84093,-0.90097 -6.13573,-2.209535 -8.80768,-5.022403 -6.19136,-6.517889 -6.04312,-16.660129 0.33687,-23.047705 3.22065,-3.224483 7.2173,-4.880621 11.7781,-4.880621 14.58887,0 22.12092,17.394659 12.10002,27.944055 -2.14796,2.261248 -4.49579,3.756706 -7.20523,4.589397 -2.37368,0.729501 -6.06948,0.917523 -8.20208,0.417277 z m 8.43586,-4.987964 c 4.63831,-2.202726 7.30684,-6.328695 7.30684,-11.297539 0,-6.302871 -4.40152,-11.440851 -10.64947,-12.43133 -2.43656,-0.386264 -4.83561,0.01188 -7.29325,1.210363 -7.84989,3.828064 -9.38989,14.304183 -2.98362,20.296502 2.5496,2.384846 5.31834,3.380314 9.06073,3.257677 2.29217,-0.07511 2.75982,-0.181357 4.55877,-1.035673 z M 40.116951,51.367199 c -0.0774,-0.07737 -0.0369,-0.69631 0.09,-1.375431 0.65691,-3.516251 3.46793,-6.237498 7.04007,-6.81522 l 1.12448,-0.181863 v 2.110478 2.110477 l -0.91826,0.172265 c -1.31526,0.246744 -2.44264,1.31384 -2.9767,2.81753 l -0.46258,1.30243 h -1.87818 c -1.033,0 -1.94147,-0.0633 -2.01884,-0.140666 z m -8.41419,-22.878084 v -2.116667 h 4.10104 4.10104 v 2.116667 2.116666 h -4.10104 -4.10104 z m 12.43541,0 v -2.116667 h 10.45105 10.45104 v 2.116667 2.116666 h -10.45104 -10.45105 z"
       id="path1" /></g></svg>
