<?xml version="1.0" encoding="UTF-8" standalone="no"?>
<!-- Created with Inkscape (http://www.inkscape.org/) -->

<svg
   width="39.122746mm"
   height="49.609383mm"
   viewBox="0 0 39.122746 49.609383"
   version="1.1"
   id="svg1"
   xml:space="preserve"
   xmlns:inkscape="http://www.inkscape.org/namespaces/inkscape"
   xmlns:sodipodi="http://sodipodi.sourceforge.net/DTD/sodipodi-0.dtd"
   xmlns="http://www.w3.org/2000/svg"
   xmlns:svg="http://www.w3.org/2000/svg"><sodipodi:namedview
     id="namedview1"
     pagecolor="#ffffff"
     bordercolor="#000000"
     borderopacity="0.25"
     inkscape:showpageshadow="2"
     inkscape:pageopacity="0.0"
     inkscape:pagecheckerboard="0"
     inkscape:deskcolor="#d1d1d1"
     inkscape:document-units="mm"
     inkscape:zoom="0.7198092"
     inkscape:cx="396.63288"
     inkscape:cy="338.97872"
     inkscape:window-width="1920"
     inkscape:window-height="1011"
     inkscape:window-x="0"
     inkscape:window-y="0"
     inkscape:window-maximized="1"
     inkscape:current-layer="layer1"
     showgrid="true"><inkscape:grid
       id="grid1"
       units="mm"
       originx="-0.68969539"
       originy="-0.88218716"
       spacingx="0.99999998"
       spacingy="1"
       empcolor="#0099e5"
       empopacity="0.30196078"
       color="#0099e5"
       opacity="0.14901961"
       empspacing="5"
       dotted="false"
       gridanglex="30"
       gridanglez="30"
       visible="true" /></sodipodi:namedview><defs
     id="defs1" /><g
     inkscape:label="Layer 1"
     inkscape:groupmode="layer"
     id="layer1"
     transform="translate(-0.68969537,-0.88218716)"><path
       style="fill:#ffffff"
       d="m 3.1527814,50.119397 c -1.06436,-0.4636 -2.17703,-1.81515 -2.36833,-2.87677 -0.0845,-0.46866 -0.11895,-10.51725 -0.0767,-22.3302 0.076,-21.2196398 0.0834,-21.4868898 0.62239,-22.2086498 0.30003,-0.40181 0.87431,-0.97604 1.27617,-1.27607 0.72006,-0.53761005 0.975,-0.54552005 17.5784396,-0.54552005 16.115104,0 16.884094,0.022 17.682734,0.50534005 0.45923,0.27793 1.08431,0.94899 1.38907,1.49123 0.54995,0.97851 0.5541,1.14913 0.5541,22.7821198 0,24.6991 0.14275,23.07193 -2.12616,24.23537 l -1.16096,0.59532 -16.281954,-0.0104 c -12.9381696,-0.008 -16.4476596,-0.0825 -17.0888196,-0.36181 z m 33.5003036,-2.54756 c 0.49765,-0.26634 0.51177,-0.73342 0.51177,-16.93333 V 13.979067 H 20.231521 3.2981914 v 16.51756 c 0,14.66318 0.0467,16.56423 0.41578,16.93333 0.36881,0.36881 2.22362,0.41577 16.4215596,0.41577 10.527217,0 16.180954,-0.0937 16.517554,-0.27389 z m -19.924124,-5.53156 c -2.80701,-0.89733 -5.15059,-2.78425 -6.6326,-5.34022 -1.8012196,-3.10648 -2.0145296,-7.41821 -0.5245396,-10.60226 2.0289596,-4.33578 5.9845896,-6.88672 10.6596996,-6.87432 4.17004,0.0111 7.752507,1.95086 9.943747,5.38424 1.96135,3.07318 2.27587,7.81297 0.73438,11.06718 -2.56266,5.41001 -8.638207,8.13717 -14.180687,6.36538 z m 6.78713,-2.67544 c 2.01282,-0.75309 3.915737,-2.54098 4.958167,-4.65845 0.74156,-1.50633 0.84834,-1.98734 0.8331,-3.75307 -0.0285,-3.29756 -1.32077,-5.81081 -3.893277,-7.5716 -3.53619,-2.42038 -8.04033,-2.13143 -11.15549,0.71565 -2.08417,1.90482 -2.82439,3.47523 -2.96286,6.28586 -0.0922,1.87054 -0.0102,2.51575 0.48678,3.83451 0.79043,2.09726 2.9766,4.32405 5.01232,5.10545 1.96646,0.75482 4.76874,0.77219 6.72126,0.0416 z m -9.36447,-7.65318 c -0.54795,-0.54795 -0.53716,-1.21485 0.051,-3.14895 0.80882,-2.65994 5.33158,-5.21747 6.82946,-3.86191 0.96561,0.87387 0.37828,2.24285 -0.96224,2.24285 -1.22502,0 -2.65634,0.9651 -3.24996,2.19135 -0.30638,0.6329 -0.55705,1.40228 -0.55705,1.70974 0,0.64055 -0.65238,1.39058 -1.20953,1.39058 -0.20789,0 -0.61362,-0.23565 -0.90163,-0.52366 z M 37.164855,7.7802572 c 0,-2.8772 -0.0791,-3.63206 -0.41578,-3.96875 -0.36882,-0.36883 -2.226157,-0.41578 -16.449474,-0.41578 -14.5482296,0 -16.0785296,0.0406 -16.5175496,0.43788 -0.42271,0.38255 -0.48386,0.88413 -0.48386,3.96875 V 11.333227 H 20.231521 37.164855 Z m -30.8050536,0.49136 c -0.22868,-0.22867 -0.41578,-0.63688 -0.41578,-0.90714 0,-0.92235 0.73201,-1.32291 2.41755,-1.32291 1.9966896,0 2.6095396,0.31068 2.6095396,1.32291 0,1.01223 -0.61285,1.32292 -2.6095396,1.32292 -1.08904,0 -1.71628,-0.13028 -2.00177,-0.41578 z m 7.6296896,-0.24568 c -0.40149,-0.61274 -0.40149,-0.71018 0,-1.32292 0.39304,-0.59985 0.60356,-0.66145 2.26049,-0.66145 1.93599,0 2.65863,0.35957 2.65863,1.32291 0,0.96334 -0.72264,1.32292 -2.65863,1.32292 -1.65693,0 -1.86745,-0.0616 -2.26049,-0.66146 z"
       id="path1"
       inkscape:export-filename="washer.svg"
       inkscape:export-xdpi="96"
       inkscape:export-ydpi="96" /></g></svg>
